<?xml version="1.0" encoding="UTF-8" standalone="no"?>
<svg
   width="40"
   height="40"
   viewBox="-8 -8.5 56 56"
   version="1.1"
   id="svg9206"
   sodipodi:docname="facebook_color.svg"
   inkscape:version="1.2.2 (732a01da63, 2022-12-09, custom)"
   xmlns:inkscape="http://www.inkscape.org/namespaces/inkscape"
   xmlns:sodipodi="http://sodipodi.sourceforge.net/DTD/sodipodi-0.dtd"
   xmlns="http://www.w3.org/2000/svg"
   xmlns:svg="http://www.w3.org/2000/svg">
  <defs
     id="defs9210" />
  <sodipodi:namedview
     id="namedview9208"
     pagecolor="#ffffff"
     bordercolor="#000000"
     borderopacity="0.25"
     inkscape:showpageshadow="2"
     inkscape:pageopacity="0.0"
     inkscape:pagecheckerboard="0"
     inkscape:deskcolor="#d1d1d1"
     showgrid="false"
     inkscape:zoom="5.9"
     inkscape:cx="9.7457627"
     inkscape:cy="20"
     inkscape:window-width="1680"
     inkscape:window-height="1013"
     inkscape:window-x="0"
     inkscape:window-y="0"
     inkscape:window-maximized="1"
     inkscape:current-layer="svg9206" />
  <g
     id="surface1">
    <path
       style="fill:#0766ff;fill-opacity:1;fill-rule:nonzero;stroke:none"
       d="m 0,17.34375 v -4.988281 c 0,-0.269531 0.0976562,-0.496094 0.289062,-0.703125 0.195313,-0.203125 0.429688,-0.3125 0.691407,-0.3125 H 4.132812 V 8.835938 c 0,-5.875 3.066407,-8.820313 9.210938,-8.835938 2.0625,0 4.007812,0.261719 5.84375,0.769531 0.554688,0.160157 0.792969,0.507813 0.726562,1.050781 L 19.230469,6.71875 C 19.164062,6.980469 19.03125,7.1875 18.828125,7.355469 18.5625,7.523438 18.296875,7.574219 18.050781,7.507812 17.457031,7.371094 16.847656,7.277344 16.222656,7.210938 15.59375,7.136719 15.035156,7.109375 14.546875,7.109375 c -0.890625,0 -1.441406,0.136719 -1.648437,0.40625 -0.214844,0.277344 -0.316407,0.828125 -0.316407,1.660156 v 2.164063 h 5.609375 c 0.238282,0 0.480469,0.113281 0.726563,0.347656 0.171875,0.160156 0.261719,0.398438 0.261719,0.710938 l -0.433594,5.042968 c 0,0.257813 -0.08594,0.46875 -0.28125,0.628906 -0.183594,0.152344 -0.40625,0.234376 -0.675782,0.234376 H 12.574219 V 37.59375 c 0,0.261719 -0.08984,0.484375 -0.289063,0.671875 -0.195312,0.191406 -0.425781,0.285156 -0.691406,0.285156 H 5.097656 c -0.273437,0 -0.496094,-0.09375 -0.695312,-0.285156 C 4.207031,38.078125 4.113281,37.855469 4.113281,37.59375 V 18.304688 H 0.980469 c -0.269531,0 -0.496094,-0.09766 -0.691407,-0.285157 C 0.0976562,17.839844 0,17.605469 0,17.34375 Z m 0,0"
       id="path9203" />
  </g>
</svg>
