<?xml version="1.0" encoding="UTF-8"?>
<svg xmlns="http://www.w3.org/2000/svg" xmlns:xlink="http://www.w3.org/1999/xlink" width="40px" height="40px" viewBox="0 0 40 40" version="1.1">
<g id="surface1">
<path style=" stroke:none;fill-rule:nonzero;fill:rgb(0%,0%,0%);fill-opacity:1;" d="M 14.757812 18.960938 L 14.757812 16.273438 C 14.757812 16.128906 14.808594 16.007812 14.910156 15.894531 C 15.011719 15.785156 15.136719 15.726562 15.273438 15.726562 L 16.933594 15.726562 L 16.933594 14.378906 C 16.933594 11.214844 18.546875 9.628906 21.78125 9.621094 C 22.867188 9.621094 23.890625 9.761719 24.855469 10.035156 C 25.148438 10.121094 25.273438 10.308594 25.238281 10.601562 L 24.878906 13.238281 C 24.84375 13.378906 24.773438 13.492188 24.667969 13.582031 C 24.527344 13.671875 24.386719 13.699219 24.257812 13.664062 C 23.945312 13.589844 23.625 13.539062 23.296875 13.503906 C 22.964844 13.464844 22.671875 13.449219 22.414062 13.449219 C 21.945312 13.449219 21.65625 13.523438 21.546875 13.667969 C 21.433594 13.816406 21.378906 14.113281 21.378906 14.5625 L 21.378906 15.726562 L 24.332031 15.726562 C 24.457031 15.726562 24.585938 15.789062 24.714844 15.914062 C 24.804688 16 24.851562 16.128906 24.851562 16.296875 L 24.625 19.011719 C 24.625 19.152344 24.578125 19.265625 24.476562 19.351562 C 24.378906 19.433594 24.261719 19.476562 24.121094 19.476562 L 21.375 19.476562 L 21.375 29.863281 C 21.375 30.003906 21.328125 30.125 21.222656 30.226562 C 21.121094 30.328125 21 30.378906 20.859375 30.378906 L 17.441406 30.378906 C 17.296875 30.378906 17.179688 30.328125 17.074219 30.226562 C 16.972656 30.125 16.921875 30.003906 16.921875 29.863281 L 16.921875 19.476562 L 15.273438 19.476562 C 15.132812 19.476562 15.011719 19.425781 14.910156 19.324219 C 14.808594 19.226562 14.757812 19.101562 14.757812 18.960938 Z M 14.757812 18.960938 "/>
</g>
</svg>
