<?xml version="1.0" encoding="UTF-8" standalone="no"?>
<svg
   width="40"
   height="40"
   viewBox="-8 -8 56 56"
   version="1.1"
   id="svg14614"
   sodipodi:docname="linkedin_color.svg"
   inkscape:version="1.2.2 (732a01da63, 2022-12-09, custom)"
   xmlns:inkscape="http://www.inkscape.org/namespaces/inkscape"
   xmlns:sodipodi="http://sodipodi.sourceforge.net/DTD/sodipodi-0.dtd"
   xmlns="http://www.w3.org/2000/svg"
   xmlns:svg="http://www.w3.org/2000/svg">
  <defs
     id="defs14618" />
  <sodipodi:namedview
     id="namedview14616"
     pagecolor="#ffffff"
     bordercolor="#000000"
     borderopacity="0.25"
     inkscape:showpageshadow="2"
     inkscape:pageopacity="0.0"
     inkscape:pagecheckerboard="0"
     inkscape:deskcolor="#d1d1d1"
     showgrid="false"
     inkscape:zoom="5.9"
     inkscape:cx="20.254237"
     inkscape:cy="20"
     inkscape:window-width="1680"
     inkscape:window-height="1013"
     inkscape:window-x="0"
     inkscape:window-y="0"
     inkscape:window-maximized="1"
     inkscape:current-layer="svg14614" />
  <g
     id="surface1"
     transform="scale(0.98216)">
    <path
       style="fill:#2666b0;fill-opacity:1;fill-rule:nonzero;stroke:none"
       d="M 8.839844,40.585938 H 0.144531 V 11.597656 h 8.695313 z m 31.886718,0 H 32.03125 V 25.09375 c 0,-4.035156 -1.441406,-6.039062 -4.285156,-6.039062 -2.265625,0 -3.695313,1.121093 -4.410156,3.378906 0,3.652344 0,18.152344 0,18.152344 h -8.695313 c 0,0 0.113281,-26.089844 0,-28.988282 H 21.5 l 0.53125,5.792969 h 0.183594 c 1.78125,-2.894531 4.625,-4.863281 8.539062,-4.863281 2.96875,0 5.375,0.828125 7.207032,2.902344 1.84375,2.078124 2.765624,4.871093 2.765624,8.78125 z m 0,0"
       id="path14609" />
    <path
       style="fill:#2666b0;fill-opacity:1;fill-rule:nonzero;stroke:none"
       d="m 8.988281,4.347656 c 0,2.40625 -2.011719,4.347656 -4.496093,4.347656 C 2.011719,8.695312 0,6.753906 0,4.347656 0,1.949219 2.011719,0 4.492188,0 6.976562,0 8.988281,1.949219 8.988281,4.347656 Z m 0,0"
       id="path14611" />
  </g>
</svg>
