<?xml version="1.0" encoding="UTF-8"?>
<svg xmlns="http://www.w3.org/2000/svg" xmlns:xlink="http://www.w3.org/1999/xlink" width="40px" height="40px" viewBox="0 0 40 40" version="1.1">
<g id="surface1">
<path style=" stroke:none;fill-rule:nonzero;fill:rgb(0%,0%,0%);fill-opacity:1;" d="M 13.332031 31.667969 L 8.332031 31.667969 L 8.332031 15 L 13.332031 15 Z M 31.667969 31.667969 L 26.667969 31.667969 L 26.667969 22.761719 C 26.667969 20.441406 25.839844 19.289062 24.203125 19.289062 C 22.902344 19.289062 22.078125 19.933594 21.667969 21.230469 C 21.667969 23.332031 21.667969 31.667969 21.667969 31.667969 L 16.667969 31.667969 C 16.667969 31.667969 16.734375 16.667969 16.667969 15 L 20.613281 15 L 20.917969 18.332031 L 21.023438 18.332031 C 22.046875 16.667969 23.683594 15.535156 25.933594 15.535156 C 27.640625 15.535156 29.023438 16.011719 30.078125 17.203125 C 31.136719 18.398438 31.667969 20.003906 31.667969 22.253906 Z M 31.667969 31.667969 "/>
<path style=" stroke:none;fill-rule:nonzero;fill:rgb(0%,0%,0%);fill-opacity:1;" d="M 13.417969 10.832031 C 13.417969 12.214844 12.261719 13.332031 10.832031 13.332031 C 9.40625 13.332031 8.25 12.214844 8.25 10.832031 C 8.25 9.453125 9.40625 8.332031 10.832031 8.332031 C 12.261719 8.332031 13.417969 9.453125 13.417969 10.832031 Z M 13.417969 10.832031 "/>
</g>
</svg>
