<?xml version="1.0" encoding="UTF-8"?>
<svg xmlns="http://www.w3.org/2000/svg" xmlns:xlink="http://www.w3.org/1999/xlink" width="40px" height="40px" viewBox="0 0 40 40" version="1.1">
<g id="surface1">
<path style=" stroke:none;fill-rule:nonzero;fill:rgb(0%,0%,0%);fill-opacity:1;" d="M 31.367188 13.039062 C 30.539062 13.40625 29.652344 13.652344 28.722656 13.765625 C 29.671875 13.191406 30.402344 12.289062 30.75 11.214844 C 29.855469 11.734375 28.871094 12.113281 27.820312 12.324219 C 26.980469 11.425781 25.785156 10.863281 24.457031 10.863281 C 21.910156 10.863281 19.847656 12.925781 19.847656 15.46875 C 19.847656 15.835938 19.890625 16.1875 19.964844 16.523438 C 16.136719 16.34375 12.738281 14.503906 10.464844 11.722656 C 10.066406 12.398438 9.84375 13.183594 9.84375 14.039062 C 9.84375 15.640625 10.660156 17.050781 11.894531 17.875 C 11.136719 17.851562 10.425781 17.644531 9.808594 17.300781 L 9.808594 17.355469 C 9.808594 19.589844 11.390625 21.453125 13.503906 21.878906 C 13.117188 21.980469 12.707031 22.039062 12.289062 22.039062 C 11.996094 22.039062 11.714844 22.011719 11.433594 21.957031 C 12.023438 23.789062 13.722656 25.121094 15.746094 25.160156 C 14.171875 26.398438 12.175781 27.132812 10.027344 27.132812 C 9.664062 27.132812 9.296875 27.109375 8.933594 27.066406 C 10.984375 28.375 13.398438 29.136719 16.011719 29.136719 C 24.492188 29.136719 29.125 22.117188 29.125 16.035156 C 29.125 15.839844 29.125 15.644531 29.113281 15.445312 C 30.011719 14.800781 30.796875 13.984375 31.417969 13.058594 L 31.371094 13.042969 Z M 31.367188 13.039062 "/>
</g>
</svg>
