<?xml version="1.0" encoding="UTF-8" standalone="no"?>
<svg
   width="40"
   height="40"
   viewBox="-8 -11.5 56 56"
   version="1.1"
   id="svg1987"
   sodipodi:docname="twitter_color.svg"
   inkscape:version="1.2.2 (732a01da63, 2022-12-09, custom)"
   xmlns:inkscape="http://www.inkscape.org/namespaces/inkscape"
   xmlns:sodipodi="http://sodipodi.sourceforge.net/DTD/sodipodi-0.dtd"
   xmlns="http://www.w3.org/2000/svg"
   xmlns:svg="http://www.w3.org/2000/svg">
  <defs
     id="defs1991" />
  <sodipodi:namedview
     id="namedview1989"
     pagecolor="#ffffff"
     bordercolor="#000000"
     borderopacity="0.25"
     inkscape:showpageshadow="2"
     inkscape:pageopacity="0.0"
     inkscape:pagecheckerboard="0"
     inkscape:deskcolor="#d1d1d1"
     showgrid="false"
     inkscape:zoom="7.1515152"
     inkscape:cx="20.205508"
     inkscape:cy="5.3135593"
     inkscape:window-width="1680"
     inkscape:window-height="1013"
     inkscape:window-x="0"
     inkscape:window-y="0"
     inkscape:window-maximized="1"
     inkscape:current-layer="svg1987" />
  <g
     id="surface1"
     transform="scale(0.97849977)">
    <path
       style="fill:#1c99f0;fill-opacity:1;fill-rule:nonzero;stroke:none"
       d="m 40.789062,3.988281 c -1.507812,0.675781 -3.117187,1.125 -4.808593,1.332031 1.726562,-1.050781 3.054687,-2.707031 3.6875,-4.675781 C 38.039062,1.597656 36.25,2.292969 34.339844,2.679688 32.8125,1.03125 30.640625,0 28.222656,0 23.59375,0 19.84375,3.78125 19.84375,8.445312 c 0,0.671876 0.07813,1.316407 0.214844,1.933594 C 13.097656,10.046875 6.917969,6.675781 2.785156,1.574219 2.058594,2.816406 1.65625,4.253906 1.65625,5.820312 c 0,2.9375 1.484375,5.523438 3.726562,7.035157 C 4.003906,12.8125 2.714844,12.433594 1.589844,11.800781 v 0.101563 c 0,4.097656 2.878906,7.511718 6.71875,8.292968 -0.703125,0.1875 -1.449219,0.292969 -2.207032,0.292969 -0.535156,0 -1.042968,-0.05078 -1.554687,-0.148437 1.070313,3.359375 4.160156,5.800781 7.839844,5.871094 C 9.523438,28.480469 5.894531,29.828125 1.988281,29.828125 1.328125,29.828125 0.660156,29.785156 0,29.707031 3.730469,32.105469 8.117188,33.5 12.871094,33.5 c 15.417968,0 23.839844,-12.867188 23.839844,-24.019531 0,-0.355469 0,-0.714844 -0.01953,-1.082031 1.632813,-1.179688 3.058594,-2.675782 4.1875,-4.375 l -0.08203,-0.027344 z m 0,0"
       id="path1984" />
  </g>
</svg>
