<?xml version="1.0" encoding="UTF-8" standalone="no"?>
<svg
   width="40"
   height="40"
   viewBox="-4 -4 48 48"
   version="1.1"
   id="svg1987"
   sodipodi:docname="youtube_color.svg"
   inkscape:version="1.2.2 (732a01da63, 2022-12-09, custom)"
   xmlns:inkscape="http://www.inkscape.org/namespaces/inkscape"
   xmlns:sodipodi="http://sodipodi.sourceforge.net/DTD/sodipodi-0.dtd"
   xmlns="http://www.w3.org/2000/svg"
   xmlns:svg="http://www.w3.org/2000/svg">
  <defs
     id="defs1991" />
  <sodipodi:namedview
     id="namedview1989"
     pagecolor="#ffffff"
     bordercolor="#000000"
     borderopacity="0.25"
     inkscape:showpageshadow="2"
     inkscape:pageopacity="0.0"
     inkscape:pagecheckerboard="0"
     inkscape:deskcolor="#d1d1d1"
     showgrid="false"
     inkscape:zoom="5.9"
     inkscape:cx="20.084746"
     inkscape:cy="20"
     inkscape:window-width="1680"
     inkscape:window-height="1013"
     inkscape:window-x="0"
     inkscape:window-y="0"
     inkscape:window-maximized="1"
     inkscape:current-layer="svg1987" />
  <g
     id="surface1"
     style="fill:#ff0000">
    <path
       style="fill:#ff0000;fill-opacity:1;fill-rule:nonzero;stroke:none"
       d="m 28.570312,20 c 0,-0.550781 -0.222656,-0.953125 -0.667968,-1.203125 L 16.472656,11.652344 c -0.460937,-0.296875 -0.945312,-0.3125 -1.449218,-0.04687 -0.492188,0.269531 -0.738282,0.6875 -0.738282,1.25 V 27.14063 c 0,0.566406 0.246094,0.984375 0.738282,1.25 0.234374,0.121094 0.464843,0.179687 0.691406,0.179687 0.296875,0 0.550781,-0.07422 0.757812,-0.222656 L 27.898438,21.203125 C 28.347656,20.949219 28.570312,20.546875 28.570312,20 Z M 40,20 c 0,1.429688 -0.0078,2.546875 -0.02344,3.347656 -0.01172,0.804688 -0.07422,1.820313 -0.1875,3.046875 -0.113281,1.226563 -0.28125,2.324219 -0.503906,3.292969 -0.234375,1.085938 -0.75,2 -1.539062,2.746094 -0.789063,0.742187 -1.710938,1.171875 -2.769532,1.292968 -3.300779,0.371094 -8.292966,0.558594 -14.97656,0.558594 -6.683594,0 -11.675781,-0.1875 -14.976562,-0.558594 C 3.964844,33.609375 3.039062,33.175781 2.242188,32.433594 1.449219,31.6875 0.929688,30.773438 0.691406,29.6875 0.484375,28.71875 0.324219,27.621094 0.210938,26.394531 0.101562,25.167969 0.0390625,24.152344 0.0234375,23.347656 0.0078125,22.542969 0,21.429688 0,20 0,18.570312 0.0078125,17.457031 0.0234375,16.652344 0.0351562,15.847656 0.0976562,14.832031 0.210938,13.605469 0.324219,12.378906 0.492188,11.28125 0.714844,10.3125 c 0.234375,-1.085938 0.75,-2 1.539062,-2.746094 C 3.042969,6.824219 3.964844,6.394531 5.023438,6.273438 8.324219,5.902344 13.316406,5.714844 20,5.714844 c 6.683594,0 11.675781,0.1875 14.976562,0.558594 1.058594,0.117187 1.984376,0.550781 2.78125,1.292968 0.792969,0.746094 1.3125,1.660156 1.550782,2.746094 0.207031,0.96875 0.367187,2.066406 0.480468,3.292969 0.109376,1.226562 0.171876,2.242187 0.1875,3.046875 C 39.992188,17.457031 40,18.570312 40,20 Z m 0,0"
       id="path1984" />
  </g>
</svg>
