<?xml version="1.0" encoding="UTF-8"?>
<svg xmlns="http://www.w3.org/2000/svg" xmlns:xlink="http://www.w3.org/1999/xlink" width="40px" height="40px" viewBox="0 0 40 40" version="1.1">
<g id="surface1">
<path style=" stroke:none;fill-rule:nonzero;fill:rgb(0%,0%,0%);fill-opacity:1;" d="M 28.570312 20 C 28.570312 19.449219 28.347656 19.046875 27.902344 18.796875 L 16.472656 11.652344 C 16.011719 11.355469 15.527344 11.339844 15.023438 11.605469 C 14.53125 11.875 14.285156 12.292969 14.285156 12.855469 L 14.285156 27.140625 C 14.285156 27.707031 14.53125 28.125 15.023438 28.390625 C 15.257812 28.511719 15.488281 28.570312 15.714844 28.570312 C 16.011719 28.570312 16.265625 28.496094 16.472656 28.347656 L 27.898438 21.203125 C 28.347656 20.949219 28.570312 20.546875 28.570312 20 Z M 40 20 C 40 21.429688 39.992188 22.546875 39.976562 23.347656 C 39.964844 24.152344 39.902344 25.167969 39.789062 26.394531 C 39.675781 27.621094 39.507812 28.71875 39.285156 29.6875 C 39.050781 30.773438 38.535156 31.6875 37.746094 32.433594 C 36.957031 33.175781 36.035156 33.605469 34.976562 33.726562 C 31.675781 34.097656 26.683594 34.285156 20 34.285156 C 13.316406 34.285156 8.324219 34.097656 5.023438 33.726562 C 3.964844 33.609375 3.039062 33.175781 2.242188 32.433594 C 1.449219 31.6875 0.929688 30.773438 0.691406 29.6875 C 0.484375 28.71875 0.324219 27.621094 0.210938 26.394531 C 0.101562 25.167969 0.0390625 24.152344 0.0234375 23.347656 C 0.0078125 22.542969 0 21.429688 0 20 C 0 18.570312 0.0078125 17.457031 0.0234375 16.652344 C 0.0351562 15.847656 0.0976562 14.832031 0.210938 13.605469 C 0.324219 12.378906 0.492188 11.28125 0.714844 10.3125 C 0.949219 9.226562 1.464844 8.3125 2.253906 7.566406 C 3.042969 6.824219 3.964844 6.394531 5.023438 6.273438 C 8.324219 5.902344 13.316406 5.714844 20 5.714844 C 26.683594 5.714844 31.675781 5.902344 34.976562 6.273438 C 36.035156 6.390625 36.960938 6.824219 37.757812 7.566406 C 38.550781 8.3125 39.070312 9.226562 39.308594 10.3125 C 39.515625 11.28125 39.675781 12.378906 39.789062 13.605469 C 39.898438 14.832031 39.960938 15.847656 39.976562 16.652344 C 39.992188 17.457031 40 18.570312 40 20 Z M 40 20 "/>
</g>
</svg>
